<svg id="Capa_1" data-name="Capa 1" xmlns="http://www.w3.org/2000/svg" viewBox="0 0 120 120"><defs><style>.cls-1{fill:#21d1a3;}.cls-2,.cls-3,.cls-4{fill:none;}.cls-2{stroke:#21d1a3;stroke-width:6px;}.cls-3{stroke:#001b66;stroke-width:4px;}</style></defs><polygon class="cls-1" points="52.65 56.13 52.65 83.71 60 79.47 60 91.78 12.44 91.78 12.44 28.84 60 28.84 60 60.37 52.65 56.13"/><polyline class="cls-2" points="107.56 48.19 107.56 28.84 88.2 28.84"/><polyline class="cls-3" points="107.56 52.72 107.56 91.78 12.44 91.78 12.44 46.29 12.44 28.84 81.69 28.84"/><line class="cls-3" x1="12.44" y1="46.22" x2="98.69" y2="46.22"/><polygon class="cls-3" points="76.53 69.92 60 79.47 52.65 83.71 52.65 56.13 60 60.37 76.53 69.92"/><line class="cls-3" x1="24.24" y1="46.22" x2="35.02" y2="28.84"/><line class="cls-3" x1="44.59" y1="46.22" x2="55.37" y2="28.84"/><line class="cls-3" x1="64.94" y1="46.22" x2="75.72" y2="28.84"/><line class="cls-3" x1="85.29" y1="46.22" x2="92.04" y2="35.34"/><rect class="cls-4" width="120" height="120"/></svg>