<svg id="Capa_1" data-name="Capa 1" xmlns="http://www.w3.org/2000/svg" viewBox="0 0 120 120"><defs><style>.cls-1{fill:#21d1a3;}.cls-2,.cls-3,.cls-4,.cls-5{fill:none;}.cls-2{stroke:#21d1a3;stroke-width:6px;}.cls-3,.cls-4{stroke:#001b66;}.cls-3{stroke-width:4px;}.cls-4{stroke-width:4.08px;}</style></defs><path class="cls-1" d="M76.12,44V59.93a17.2,17.2,0,0,1-17.2,17.2h0a17.2,17.2,0,0,1-17.2-17.2V44Z"/><path class="cls-2" d="M59.46,10.5A21.28,21.28,0,0,0,80.74,31.79"/><path class="cls-3" d="M76.12,41.18V59.93a17.2,17.2,0,0,1-17.2,17.2h0a17.2,17.2,0,0,1-17.2-17.2V31.5A17.2,17.2,0,0,1,51.94,15.78"/><path class="cls-3" d="M85,62.75A25.51,25.51,0,0,1,59.49,88.26H58.35A25.51,25.51,0,0,1,32.84,62.75"/><line class="cls-3" x1="59.11" y1="88.26" x2="59.11" y2="107.89"/><line class="cls-4" x1="77.25" y1="107.89" x2="40.6" y2="107.89"/><line class="cls-3" x1="41.72" y1="33.7" x2="53.87" y2="33.7"/><line class="cls-3" x1="41.72" y1="44.17" x2="53.87" y2="44.17"/><line class="cls-3" x1="41.72" y1="54.64" x2="53.87" y2="54.64"/><rect class="cls-5" width="120" height="120"/><rect class="cls-5" width="120" height="120"/></svg>